<svg width="512" height="512" viewBox="0 0 512 512" fill="none" xmlns="http://www.w3.org/2000/svg">
<g clip-path="url(#clip0_1_2)">
<rect width="512" height="512" fill="white"/>
<rect width="512" height="512" fill="black"/>
<path d="M276.8 130.5L361.85 349.6C365.117 358 368.733 363.833 372.7 367.1C376.9 370.133 380.633 371.767 383.9 372V379C376.9 378.533 368.617 378.3 359.05 378.3C349.717 378.067 340.267 377.95 330.7 377.95C319.967 377.95 309.817 378.067 300.25 378.3C290.683 378.3 283.1 378.533 277.5 379V372C289.4 371.533 296.867 369.55 299.9 366.05C303.167 362.317 302.467 354.5 297.8 342.6L238.3 179.85L244.6 170.75L191.4 309.35C186.267 322.183 183.117 332.683 181.95 340.85C181.017 349.017 181.6 355.317 183.7 359.75C186.033 364.183 189.65 367.333 194.55 369.2C199.683 370.833 205.75 371.767 212.75 372V379C205.05 378.533 197.7 378.3 190.7 378.3C183.7 378.067 176.583 377.95 169.35 377.95C164.217 377.95 159.317 378.067 154.65 378.3C150.217 378.3 146.25 378.533 142.75 379V372C147.65 371.067 152.667 367.917 157.8 362.55C162.933 357.183 167.95 348.083 172.85 335.25L252.65 130.5C256.383 130.733 260.35 130.85 264.55 130.85C268.983 130.85 273.067 130.733 276.8 130.5ZM301.3 278.2V285.2H197L200.5 278.2H301.3Z" fill="white"/>
</g>
<defs>
<clipPath id="clip0_1_2">
<rect width="512" height="512" fill="white"/>
</clipPath>
</defs>
</svg>